<svg width="300" height="300" viewBox="0 0 300 300" fill="none" xmlns="http://www.w3.org/2000/svg">
<g clip-path="url(#clip0_1381_282)">
<rect width="300" height="300" fill="#FFD8D8"/>
<rect width="36" height="36" rx="18" fill="#B9B9B9"/>
<path d="M15.4043 25C20.686 25 23.5757 19.6132 23.5757 14.9433C23.5757 14.7918 23.5729 14.637 23.5675 14.4856C24.1296 13.9853 24.6147 13.3655 25 12.6556C24.4765 12.9422 23.9206 13.1294 23.3514 13.2108C23.9507 12.7687 24.3995 12.0742 24.6145 11.2559C24.0507 11.6672 23.4341 11.9572 22.7912 12.1137C22.358 11.5473 21.7852 11.1722 21.1615 11.0465C20.5377 10.9208 19.8977 11.0515 19.3403 11.4184C18.783 11.7853 18.3394 12.368 18.0781 13.0763C17.8168 13.7846 17.7523 14.5791 17.8947 15.337C16.7531 15.2665 15.6363 14.9015 14.6167 14.2657C13.597 13.6299 12.6973 12.7375 11.9759 11.6463C11.6092 12.4243 11.497 13.345 11.6621 14.2212C11.8272 15.0974 12.2571 15.8633 12.8646 16.3634C12.4085 16.3456 11.9625 16.1945 11.5633 15.9225V15.9663C11.5629 16.7828 11.7922 17.5742 12.2123 18.2061C12.6325 18.838 13.2174 19.2714 13.8678 19.4325C13.4454 19.5748 13.002 19.5955 12.572 19.4931C12.7555 20.1953 13.1126 20.8094 13.5934 21.2498C14.0741 21.6902 14.6547 21.9349 15.2539 21.9497C14.2366 22.9332 12.9799 23.4666 11.6863 23.4641C11.4569 23.4637 11.2277 23.4464 11 23.4123C12.3142 24.4499 13.8429 25.001 15.4043 25Z" fill="black"/>
<rect x="50" width="36" height="36" rx="18" fill="#B9B9B9"/>
<rect x="100" width="36" height="36" rx="18" fill="#B9B9B9"/>
<rect x="150" width="36" height="36" rx="18" fill="#B9B9B9"/>
<rect x="200" width="36" height="36" rx="18" fill="#B9B9B9"/>
<rect x="250" width="36" height="36" rx="18" fill="#B9B9B9"/>
<path d="M68 12.2605C69.8703 12.2605 70.0918 12.2687 70.8273 12.3016C71.5109 12.3316 71.8801 12.4465 72.1262 12.5422C72.4516 12.668 72.6867 12.8211 72.9301 13.0645C73.1762 13.3105 73.3266 13.543 73.4523 13.8684C73.548 14.1145 73.6629 14.4863 73.693 15.1672C73.7258 15.9055 73.734 16.127 73.734 17.9945C73.734 19.8648 73.7258 20.0863 73.693 20.8219C73.6629 21.5055 73.548 21.8746 73.4523 22.1207C73.3266 22.4461 73.1734 22.6813 72.9301 22.9246C72.684 23.1707 72.4516 23.3211 72.1262 23.4469C71.8801 23.5426 71.5082 23.6574 70.8273 23.6875C70.0891 23.7203 69.8676 23.7285 68 23.7285C66.1297 23.7285 65.9082 23.7203 65.1727 23.6875C64.4891 23.6574 64.1199 23.5426 63.8738 23.4469C63.5484 23.3211 63.3133 23.168 63.0699 22.9246C62.8238 22.6785 62.6734 22.4461 62.5477 22.1207C62.452 21.8746 62.3371 21.5027 62.307 20.8219C62.2742 20.0836 62.266 19.8621 62.266 17.9945C62.266 16.1242 62.2742 15.9027 62.307 15.1672C62.3371 14.4836 62.452 14.1145 62.5477 13.8684C62.6734 13.543 62.8266 13.3078 63.0699 13.0645C63.316 12.8184 63.5484 12.668 63.8738 12.5422C64.1199 12.4465 64.4918 12.3316 65.1727 12.3016C65.9082 12.2687 66.1297 12.2605 68 12.2605ZM68 11C66.0996 11 65.8617 11.0082 65.1152 11.041C64.3715 11.0738 63.8602 11.1941 63.4172 11.3664C62.9551 11.5469 62.5641 11.7848 62.1758 12.1758C61.7848 12.5641 61.5469 12.9551 61.3664 13.4145C61.1941 13.8602 61.0738 14.3687 61.041 15.1125C61.0082 15.8617 61 16.0996 61 18C61 19.9004 61.0082 20.1383 61.041 20.8848C61.0738 21.6285 61.1941 22.1398 61.3664 22.5828C61.5469 23.0449 61.7848 23.4359 62.1758 23.8242C62.5641 24.2125 62.9551 24.4531 63.4145 24.6309C63.8602 24.8031 64.3687 24.9234 65.1125 24.9562C65.859 24.9891 66.0969 24.9973 67.9973 24.9973C69.8977 24.9973 70.1355 24.9891 70.882 24.9562C71.6258 24.9234 72.1371 24.8031 72.5801 24.6309C73.0395 24.4531 73.4305 24.2125 73.8187 23.8242C74.207 23.4359 74.4477 23.0449 74.6254 22.5855C74.7977 22.1398 74.918 21.6313 74.9508 20.8875C74.9836 20.141 74.9918 19.9031 74.9918 18.0027C74.9918 16.1023 74.9836 15.8645 74.9508 15.118C74.918 14.3742 74.7977 13.8629 74.6254 13.4199C74.4531 12.9551 74.2152 12.5641 73.8242 12.1758C73.4359 11.7875 73.0449 11.5469 72.5855 11.3691C72.1398 11.1969 71.6313 11.0766 70.8875 11.0438C70.1383 11.0082 69.9004 11 68 11Z" fill="black"/>
<path d="M68 14.4043C66.0148 14.4043 64.4043 16.0148 64.4043 18C64.4043 19.9852 66.0148 21.5957 68 21.5957C69.9852 21.5957 71.5957 19.9852 71.5957 18C71.5957 16.0148 69.9852 14.4043 68 14.4043ZM68 20.3324C66.7121 20.3324 65.6676 19.2879 65.6676 18C65.6676 16.7121 66.7121 15.6676 68 15.6676C69.2879 15.6676 70.3324 16.7121 70.3324 18C70.3324 19.2879 69.2879 20.3324 68 20.3324Z" fill="black"/>
<path d="M72.5773 14.2621C72.5773 14.7269 72.2 15.1015 71.7379 15.1015C71.273 15.1015 70.8984 14.7242 70.8984 14.2621C70.8984 13.7972 71.2758 13.4226 71.7379 13.4226C72.2 13.4226 72.5773 13.8 72.5773 14.2621Z" fill="black"/>
<path d="M124.861 15.2C124.861 15.2 124.724 14.2348 124.303 13.811C123.77 13.2532 123.173 13.2504 122.9 13.2176C120.942 13.0754 118.003 13.0754 118.003 13.0754H117.997C117.997 13.0754 115.058 13.0754 113.1 13.2176C112.827 13.2504 112.23 13.2532 111.697 13.811C111.276 14.2348 111.142 15.2 111.142 15.2C111.142 15.2 111 16.3348 111 17.4668V18.5278C111 19.6598 111.139 20.7946 111.139 20.7946C111.139 20.7946 111.276 21.7598 111.695 22.1836C112.228 22.7415 112.928 22.7223 113.239 22.7825C114.361 22.8891 118 22.9219 118 22.9219C118 22.9219 120.942 22.9165 122.9 22.777C123.173 22.7442 123.77 22.7415 124.303 22.1836C124.724 21.7598 124.861 20.7946 124.861 20.7946C124.861 20.7946 125 19.6625 125 18.5278V17.4668C125 16.3348 124.861 15.2 124.861 15.2ZM116.554 19.8157V15.8809L120.335 17.8551L116.554 19.8157Z" fill="black"/>
<path d="M166.768 16.873C166.369 16.873 166.054 17.223 166.054 17.65C166.054 18.077 166.376 18.427 166.768 18.427C167.167 18.427 167.482 18.077 167.482 17.65C167.489 17.223 167.167 16.873 166.768 16.873ZM169.323 16.873C168.924 16.873 168.609 17.223 168.609 17.65C168.609 18.077 168.931 18.427 169.323 18.427C169.722 18.427 170.037 18.077 170.037 17.65C170.037 17.223 169.722 16.873 169.323 16.873Z" fill="black"/>
<path d="M172.725 11H163.345C162.554 11 161.91 11.644 161.91 12.442V21.906C161.91 22.704 162.554 23.348 163.345 23.348H171.283L170.912 22.053L171.808 22.886L172.655 23.67L174.16 25V12.442C174.16 11.644 173.516 11 172.725 11ZM170.023 20.142C170.023 20.142 169.771 19.841 169.561 19.575C170.478 19.316 170.828 18.742 170.828 18.742C170.541 18.931 170.268 19.064 170.023 19.155C169.673 19.302 169.337 19.4 169.008 19.456C168.336 19.582 167.72 19.547 167.195 19.449C166.796 19.372 166.453 19.26 166.166 19.148C166.005 19.085 165.83 19.008 165.655 18.91C165.634 18.896 165.613 18.889 165.592 18.875C165.578 18.868 165.571 18.861 165.564 18.854C165.438 18.784 165.368 18.735 165.368 18.735C165.368 18.735 165.704 19.295 166.593 19.561C166.383 19.827 166.124 20.142 166.124 20.142C164.577 20.093 163.989 19.078 163.989 19.078C163.989 16.824 164.997 14.997 164.997 14.997C166.005 14.241 166.964 14.262 166.964 14.262L167.034 14.346C165.774 14.71 165.193 15.263 165.193 15.263C165.193 15.263 165.347 15.179 165.606 15.06C166.355 14.731 166.95 14.64 167.195 14.619C167.237 14.612 167.272 14.605 167.314 14.605C167.741 14.549 168.224 14.535 168.728 14.591C169.393 14.668 170.107 14.864 170.835 15.263C170.835 15.263 170.282 14.738 169.092 14.374L169.19 14.262C169.19 14.262 170.149 14.241 171.157 14.997C171.157 14.997 172.165 16.824 172.165 19.078C172.165 19.078 171.57 20.093 170.023 20.142V20.142Z" fill="black"/>
<g clip-path="url(#clip1_1381_282)">
<path fill-rule="evenodd" clip-rule="evenodd" d="M218 11.2917C216.338 11.2925 214.731 11.8811 213.466 12.9522C212.2 14.0232 211.359 15.5069 211.093 17.1379C210.827 18.7688 211.153 20.4408 212.013 21.8548C212.872 23.2688 214.21 24.3325 215.786 24.8559C216.134 24.9205 216.265 24.7049 216.265 24.5217C216.265 24.3384 216.258 23.8071 216.256 23.2262C214.308 23.6469 213.897 22.4045 213.897 22.4045C213.579 21.5977 213.12 21.3856 213.12 21.3856C212.485 20.9546 213.168 20.9626 213.168 20.9626C213.871 21.0122 214.241 21.6807 214.241 21.6807C214.865 22.7445 215.879 22.4367 216.278 22.2569C216.34 21.8063 216.522 21.4997 216.723 21.3257C215.167 21.1505 213.533 20.5535 213.533 17.8865C213.523 17.1949 213.781 16.526 214.254 16.0183C214.182 15.8431 213.942 15.1354 214.322 14.1742C214.322 14.1742 214.91 13.9875 216.248 14.8876C217.395 14.5756 218.605 14.5756 219.753 14.8876C221.089 13.9875 221.676 14.1742 221.676 14.1742C222.057 15.1331 221.817 15.8408 221.745 16.0183C222.219 16.526 222.478 17.1961 222.467 17.8888C222.467 20.5616 220.83 21.1505 219.272 21.3222C219.522 21.5389 219.746 21.9619 219.746 22.6119C219.746 23.5432 219.738 24.2923 219.738 24.5217C219.738 24.7072 219.864 24.9239 220.219 24.8559C221.795 24.3325 223.133 23.2685 223.993 21.8543C224.852 20.4401 225.178 18.7679 224.912 17.1367C224.645 15.5056 223.804 14.0219 222.538 12.951C221.272 11.8802 219.665 11.292 218.003 11.2917H218Z" fill="black"/>
<path d="M213.651 21.2854C213.636 21.3199 213.58 21.3303 213.535 21.3061C213.49 21.2819 213.456 21.237 213.472 21.2012C213.489 21.1655 213.543 21.1563 213.588 21.1805C213.634 21.2047 213.668 21.2508 213.651 21.2854Z" fill="black"/>
<path d="M213.935 21.6C213.911 21.612 213.883 21.6154 213.857 21.6095C213.831 21.6036 213.808 21.5888 213.791 21.5677C213.746 21.5193 213.737 21.4525 213.771 21.4225C213.806 21.3925 213.869 21.4064 213.914 21.4548C213.959 21.5032 213.97 21.57 213.935 21.6Z" fill="black"/>
<path d="M214.211 21.9999C214.168 22.0299 214.095 21.9999 214.054 21.94C214.043 21.9293 214.034 21.9164 214.028 21.9021C214.022 21.8878 214.019 21.8725 214.019 21.857C214.019 21.8415 214.022 21.8262 214.028 21.8119C214.034 21.7977 214.043 21.7848 214.054 21.774C214.097 21.7452 214.17 21.774 214.211 21.8328C214.251 21.8916 214.252 21.97 214.211 21.9999V21.9999Z" fill="black"/>
<path d="M214.585 22.3872C214.547 22.4298 214.469 22.4183 214.405 22.3607C214.342 22.303 214.327 22.2247 214.365 22.1832C214.403 22.1417 214.481 22.1532 214.547 22.2097C214.613 22.2662 214.626 22.3457 214.585 22.3872V22.3872Z" fill="black"/>
<path d="M215.11 22.613C215.093 22.6672 215.014 22.6914 214.935 22.6684C214.856 22.6453 214.804 22.5808 214.819 22.5254C214.834 22.4701 214.914 22.4448 214.994 22.4701C215.074 22.4955 215.125 22.5566 215.11 22.613Z" fill="black"/>
<path d="M215.683 22.6522C215.683 22.7087 215.618 22.7571 215.535 22.7583C215.451 22.7594 215.383 22.7133 215.383 22.6568C215.383 22.6004 215.448 22.552 215.531 22.5508C215.615 22.5497 215.683 22.5946 215.683 22.6522Z" fill="black"/>
<path d="M216.216 22.5635C216.226 22.62 216.169 22.6788 216.085 22.6926C216.002 22.7064 215.929 22.673 215.918 22.6177C215.908 22.5624 215.968 22.5024 216.049 22.4874C216.13 22.4725 216.206 22.507 216.216 22.5635Z" fill="black"/>
</g>
<path fill-rule="evenodd" clip-rule="evenodd" d="M265.76 11H270.24C271.631 11 272.76 12.1289 272.76 13.52C272.76 14.4949 272.206 15.3409 271.395 15.76C272.206 16.179 272.76 17.0251 272.76 18C272.76 19.3911 271.631 20.52 270.24 20.52C269.449 20.52 268.742 20.1547 268.28 19.5837V22.48C268.28 23.8711 267.151 25 265.76 25C264.369 25 263.24 23.8711 263.24 22.48C263.24 21.5051 263.794 20.659 264.605 20.24C263.794 19.8209 263.24 18.9748 263.24 18C263.24 17.0251 263.794 16.179 264.605 15.76C263.794 15.3409 263.24 14.4949 263.24 13.52C263.24 12.1289 264.369 11 265.76 11ZM263.8 13.52C263.8 12.4382 264.678 11.56 265.76 11.56H267.72V15.48H265.76L265.754 15.48C264.675 15.4767 263.8 14.5998 263.8 13.52ZM267.72 17.9733C267.72 17.9822 267.72 17.9911 267.72 18C267.72 18.0089 267.72 18.0178 267.72 18.0266V19.9599H265.76C264.678 19.96 263.8 19.0818 263.8 18C263.8 16.9202 264.675 16.0432 265.754 16.04L265.76 16.04H267.72L267.72 17.9733ZM268.28 18.0235V17.9765C268.293 16.9081 269.162 16.0443 270.232 16.04H270.24C270.242 16.04 270.244 16.04 270.246 16.04C271.325 16.0432 272.2 16.9202 272.2 18C272.2 19.0818 271.322 19.96 270.24 19.96C269.166 19.96 268.293 19.0945 268.28 18.0235ZM268.656 16.04C268.518 16.1518 268.392 16.278 268.28 16.4163V16.04H268.656ZM270.246 15.48C270.244 15.48 270.242 15.48 270.24 15.48C270.237 15.48 270.234 15.48 270.231 15.48H268.28V11.56H270.24C271.322 11.56 272.2 12.4382 272.2 13.52C272.2 14.5998 271.325 15.4767 270.246 15.48ZM265.76 20.52C264.678 20.52 263.8 21.3981 263.8 22.48C263.8 23.5618 264.678 24.44 265.76 24.44C266.842 24.44 267.72 23.5618 267.72 22.48V20.52H265.76Z" fill="black"/>
</g>
<defs>
<clipPath id="clip0_1381_282">
<rect width="300" height="300" fill="white"/>
</clipPath>
<clipPath id="clip1_1381_282">
<rect width="14" height="14" fill="white" transform="translate(211 11)"/>
</clipPath>
</defs>
</svg>
