<?xml version="1.0" ?><svg width="64px" height="64px" viewBox="0 0 64 64" xmlns="http://www.w3.org/2000/svg" xmlns:xlink="http://www.w3.org/1999/xlink"><defs><style>.cls-1{fill:url(#linear-gradient);}</style><linearGradient gradientUnits="userSpaceOnUse" id="linear-gradient" x1="13.7573" x2="53.7651" y1="57.1714" y2="17.1637"><stop offset="0" stop-color="#107eff"/><stop offset="1" stop-color="#8f16ff"/></linearGradient></defs><g id="woman-mask17"><path class="cls-1" d="M42,55v4a1,1,0,0,1-2,0V55a1,1,0,0,1,2,0ZM23,54a1,1,0,0,0-1,1v4a1,1,0,0,0,2,0V55A1,1,0,0,0,23,54ZM51.9922,31.876a1,1,0,0,1-1.4395,1.0185L48.99,32.1133a7.2876,7.2876,0,0,1-.042,4.2031c-.7226,2.169.4629,6.0137.98,7.3125A1,1,0,0,1,48.2,44.6c-.1309-.1738-3.2-4.3154-3.2-8.6a4.761,4.761,0,0,0-.1035-1.0527c-.02-.0879-.0488-.2071-.2793-.1612-.2959.0586-.2617.2608-.251.3272l.62,3.7226a.9992.9992,0,0,1-1.3027,1.1123c-1.2078-.4023-2.31-1.5767-3.3541-3.5567A12.4658,12.4658,0,0,1,37,39.2166V42h1.3252A8.5756,8.5756,0,0,1,46.82,49.499l1.1719,9.377a1,1,0,0,1-.8682,1.1162A1.0838,1.0838,0,0,1,46.999,60a1,1,0,0,1-.9912-.876l-1.1719-9.3769a6.573,6.573,0,0,0-5.9286-5.72A5.9914,5.9914,0,0,1,33,49v2a1,1,0,0,1-2,0V49a5.9643,5.9643,0,0,1-5.907-4.9729,6.5732,6.5732,0,0,0-5.9289,5.72L17.9922,59.124A1,1,0,0,1,17.001,60a1.0838,1.0838,0,0,1-.125-.0078,1,1,0,0,1-.8682-1.1162L17.18,49.499A8.5756,8.5756,0,0,1,25.6748,42H27V39.2166A10.8992,10.8992,0,0,1,22.7687,34.97c-.8656,2.292-1.8015,4.3207-1.8615,4.4506a1,1,0,0,1-1.8769-.6631A8.6179,8.6179,0,0,0,18.02,32.9619,29.1039,29.1039,0,0,0,17,41a1,1,0,0,1-1.707.707c-2.6856-2.6855-1.97-10.1816-1.5069-13.4443l-3.59.7178a1,1,0,0,1-.7109-1.8379c1.8369-1.1035,4.9873-3.3242,5.62-4.59a15.9115,15.9115,0,0,0,.6679-2.1045c1.0254-3.6748,2.7412-9.8232,7.7793-12.3427C28.834,5.4648,32.7246,7.1006,34.08,7.87c1.1777-.4746,4.04-1.3252,6.4746.2979,1.7734,1.1816,2.7988,4.0029,3.8848,6.99.8847,2.4336,1.8886,5.1914,3.1152,6.01C50.8408,23.3584,51.8838,31.0107,51.9922,31.876ZM30.97,18.2422A20.7247,20.7247,0,0,1,29.5231,22.19,4.488,4.488,0,0,1,30.7236,24h2.5528A4.4607,4.4607,0,0,1,41,22.7065V22c0-3.9714-2.6758-6.9933-6.8411-7.7921A7.61,7.61,0,0,0,30.97,18.2422ZM24.1343,29.5977l.3252-.11c-.0475-.0245-.094-.05-.14-.0764C24.2576,29.473,24.1945,29.5384,24.1343,29.5977Zm6.4106-2.1619,1.1358-.3831a.9932.9932,0,0,1,.6386,0l1.1358.3831A4.4444,4.4444,0,0,1,33.0505,26H30.95A4.4444,4.4444,0,0,1,30.5449,27.4358Zm8.9956,2.0522.7463.2517.124-.8365A4.4923,4.4923,0,0,1,39.5405,29.488ZM43,25.4414v-.3906a1.042,1.042,0,0,0-1.0244-1.0459.9785.9785,0,0,1-.2693-.06,4.3355,4.3355,0,0,1-.3652,3.8663A2.5214,2.5214,0,0,0,43,25.4414ZM35,43V40.2324A8.6308,8.6308,0,0,1,32,41a8.6308,8.6308,0,0,1-3-.7676V43a1,1,0,0,1-1,1h-.8679A3.9734,3.9734,0,0,0,31,47h2a3.9952,3.9952,0,0,0,3.8723-3H36A1,1,0,0,1,35,43Zm4.8164-10.085.1727-1.1657L32,29.0557l-8.1777,2.7572c-.0368.1337-.0775.271-.1178.408a.9724.9724,0,0,1,.4791.6941C24.6758,36.2363,30.1064,39,32,39S39.3242,36.2363,39.8164,32.915Zm9.874-2.6875c-.5195-2.5908-1.5859-6.289-3.2451-7.3955-1.7734-1.1816-2.7988-4.0029-3.8848-6.99-.8847-2.4336-1.8886-5.1914-3.1152-6.01-2.0967-1.3984-4.957.042-4.9863.0567A1.0034,1.0034,0,0,1,33.4,9.8c-.1406-.1025-3.6231-2.57-8.9531.0947-4.2452,2.1221-5.8116,7.7364-6.7471,11.0909a15.9013,15.9013,0,0,1-.8057,2.4619,9.53,9.53,0,0,1-2.414,2.6367l.3232-.0645a1.0006,1.0006,0,0,1,1.1807,1.1592,39.52,39.52,0,0,0-.6006,8.3633c.3144-2.1035.8828-4.2227,1.9092-5.249a.97.97,0,0,1,.7783-.29A.9969.9969,0,0,1,18.8,30.4a13.8281,13.8281,0,0,1,1.9971,4.1279c.3639-.9491.72-1.95.99-2.8684-.1138.0864-.1937.1451-.2057.1536a1,1,0,0,1-1.1631-1.627,22.6725,22.6725,0,0,0,2.4062-2.106,4.46,4.46,0,0,1,4.9536-6.8732,18.7616,18.7616,0,0,0,1.2525-3.45c1.0781-4.3164,6.3574-6.5849,6.581-6.68a1.003,1.003,0,0,1,1.31.5323.9866.9866,0,0,1-.3655,1.197A9.5354,9.5354,0,0,1,43,22v.1865a3.0267,3.0267,0,0,1,2,2.8643v.3906A4.5715,4.5715,0,0,1,42.334,29.57l-.5391,3.6377a5.76,5.76,0,0,1-.2873,1.09.93.93,0,0,1,.0754.1052,15.3666,15.3666,0,0,0,.9385,1.8057l-.1279-.7676a2.2586,2.2586,0,0,1,1.8339-2.6172,2.1722,2.1722,0,0,1,2.6182,1.6738,6.5973,6.5973,0,0,1,.1533,1.3526q.0249-.0836.0528-.167c.8281-2.4854-.8682-5.1055-.8858-5.1309a1.0008,1.0008,0,0,1,1.2813-1.4472ZM61,48.5A3.5,3.5,0,1,1,57.5,45,3.5042,3.5042,0,0,1,61,48.5Zm-2,0A1.5,1.5,0,1,0,57.5,50,1.5017,1.5017,0,0,0,59,48.5ZM11.1211,41.8789a1,1,0,0,0-1.4141,0L9,42.5859l-.707-.707A1,1,0,1,0,6.8789,43.293l.707.707-.707.707A1,1,0,1,0,8.293,46.1211L9,45.4141l.707.707a1,1,0,1,0,1.4141-1.4141L10.4141,44l.707-.707A1,1,0,0,0,11.1211,41.8789ZM52.5,16.3676A1.1324,1.1324,0,1,0,53.6324,17.5,1.1324,1.1324,0,0,0,52.5,16.3676ZM35.8145,32.2363A34.5062,34.5062,0,0,1,32,32.7812a34.5062,34.5062,0,0,1-3.8145-.5449,1,1,0,0,0-.371,1.9649,35.61,35.61,0,0,0,4.1855.58,35.61,35.61,0,0,0,4.1855-.58,1,1,0,0,0-.371-1.9649Zm-1.25,3.2207A18.831,18.831,0,0,1,32,35.7812a21.5243,21.5243,0,0,1-2.6123-.332,1,1,0,1,0-.33,1.9727A21.7111,21.7111,0,0,0,32,37.7812a21.109,21.109,0,0,0,2.8926-.3515,1,1,0,0,0-.3281-1.9727Z"/></g></svg>