<?xml version="1.0" ?><svg width="64px" height="64px" viewBox="0 0 64 64" xmlns="http://www.w3.org/2000/svg" xmlns:xlink="http://www.w3.org/1999/xlink"><defs><style>.cls-1{fill:url(#linear-gradient);}</style><linearGradient gradientUnits="userSpaceOnUse" id="linear-gradient" x1="9.1868" x2="50.8132" y1="57.6009" y2="15.9745"><stop offset="0" stop-color="#107eff"/><stop offset="1" stop-color="#8f16ff"/></linearGradient></defs><g id="woman-mask3"><path class="cls-1" d="M45.8953,17.04l-4.3689-6.5535,0,0-.5751-.8628-.4561-2.7348A4.6389,4.6389,0,0,0,35.9048,3h-11.81a4.6389,4.6389,0,0,0-4.59,3.8887L19.0488,9.624l-.5724.8586-.0053.0081-4.3664,6.55A2.5181,2.5181,0,0,0,13,19c0,1.3812,1.3563,2.5142,4,3.3782V38a1,1,0,0,0,1,1h6.6512c.4269.2729.86.5245,1.2912.7451v1.1973c0,.02.0055.0379.0058.0576H22.8848a7.6349,7.6349,0,0,0-7.607,6.02l-.26,1.3462a.99.99,0,0,0,.396.9839,8.7344,8.7344,0,0,0-.2364,1.17l-1.1723,11.377a1,1,0,0,0,.8921,1.0971.9277.9277,0,0,0,.104.0054,1,1,0,0,0,.9931-.8975l1.17-11.3559c.02-.1578.0524-.3136.0834-.47a31.2218,31.2218,0,0,0,25.504,0c.03.15.0625.3007.081.4485l1.1724,11.3769A1,1,0,0,0,44.999,63a.925.925,0,0,0,.1035-.0054,1,1,0,0,0,.8921-1.0971L44.82,50.5a8.5849,8.5849,0,0,0-.2336-1.1492.99.99,0,0,0,.3957-.9836l-.26-1.3462A7.6349,7.6349,0,0,0,37.1152,41H34.0518c0-.02.0058-.0379.0058-.0576V39.7451c.4312-.2206.8643-.4722,1.2912-.7451H42a1,1,0,0,0,1-1V22.3784c2.6774-.8706,4-1.9763,4-3.3784A2.5181,2.5181,0,0,0,45.8953,17.04ZM30,39c-1.894,0-7.3247-2.7637-7.8164-6.085l-.3184-2.1491L30,28.0542l8.1348,2.7117-.3184,2.1491C37.3247,36.2363,31.894,39,30,39Zm4.5-12A2.5,2.5,0,1,1,37,24.5,2.503,2.503,0,0,1,34.5,27ZM30,24.5a4.4513,4.4513,0,0,0,.2911,1.5472.9974.9974,0,0,0-.5822,0A4.3969,4.3969,0,0,0,29.2382,22h1.5236A4.4725,4.4725,0,0,0,30,24.5Zm-2,0A2.5,2.5,0,1,1,25.5,22,2.503,2.503,0,0,1,28,24.5Zm11.1509,3.3833a.9991.9991,0,0,0-.7095.8135l-.0089.06-1.4793-.4931A4.4943,4.4943,0,0,0,34.5,20h-9a4.4943,4.4943,0,0,0-2.4532,8.2637l-1.4793.4931-.0089-.06a.9991.9991,0,0,0-.7095-.8135A2.5335,2.5335,0,0,1,19,25.4409v-.39a1.0432,1.0432,0,0,1,1.0249-1.0464,1,1,0,0,0,.9751-1V22a7.4346,7.4346,0,0,1,2.3976-5.6345A56.5665,56.5665,0,0,1,30,16a56.5665,56.5665,0,0,1,6.6024.3655A7.4346,7.4346,0,0,1,39,22v1.0049a1,1,0,0,0,.9751,1A1.0432,1.0432,0,0,1,41,25.0508v.39A2.5335,2.5335,0,0,1,39.1509,27.8833Zm-18.706-11.06A9.7293,9.7293,0,0,0,19,22V17.1377C19.4436,17.0281,19.93,16.9234,20.4449,16.8229ZM41,22a9.7293,9.7293,0,0,0-1.4449-5.1771c.515.1005,1.0013.2052,1.4449.3148ZM21.4775,7.2178A2.6456,2.6456,0,0,1,24.0952,5h11.81a2.6456,2.6456,0,0,1,2.6177,2.2178l.4091,2.4544A56.383,56.383,0,0,0,30,9a56.3882,56.3882,0,0,0-8.9316.6721Zm-1.5548,4.7008A50.8732,50.8732,0,0,1,30,11a50.8593,50.8593,0,0,1,10.0774.9189L42.4317,15.45A49.9954,49.9954,0,0,0,30,14a49.9954,49.9954,0,0,0-12.4317,1.45ZM37.1152,43a5.634,5.634,0,0,1,5.6431,4.3994l.1177.6089a29.2044,29.2044,0,0,1-25.752,0l.1177-.6089A5.634,5.634,0,0,1,22.8848,43h3.6377a4.0233,4.0233,0,0,0,6.955,0Zm-5.0576-2.0576a2.0576,2.0576,0,0,1-4.1152,0v-.357A7.0547,7.0547,0,0,0,30,41a7.0547,7.0547,0,0,0,2.0576-.4146ZM55.5,42A3.5,3.5,0,1,0,59,45.5,3.5042,3.5042,0,0,0,55.5,42Zm0,5A1.5,1.5,0,1,1,57,45.5,1.5017,1.5017,0,0,1,55.5,47ZM35,24a1,1,0,1,1-1-1A1,1,0,0,1,35,24ZM25,24a1,1,0,1,1,1,1A1,1,0,0,1,25,24ZM40,56v6a1,1,0,0,1-2,0V56a1,1,0,0,1,2,0ZM22,56v6a1,1,0,0,1-2,0V56a1,1,0,0,1,2,0ZM34.9824,32.0332a.9994.9994,0,0,1-.7969,1.168,35.5948,35.5948,0,0,1-4.1855.58,35.5948,35.5948,0,0,1-4.1855-.58,1,1,0,0,1,.371-1.9649A34.4725,34.4725,0,0,0,30,31.7812a34.4725,34.4725,0,0,0,3.8145-.5449A1.0006,1.0006,0,0,1,34.9824,32.0332Zm-1.2671,3.2456a1,1,0,0,1-.8217,1.1509A21.2764,21.2764,0,0,1,30,36.7812a21.5583,21.5583,0,0,1-2.9424-.36,1,1,0,1,1,.3311-1.9727A21.32,21.32,0,0,0,30,34.7812a21.0809,21.0809,0,0,0,2.5645-.3242A1.0023,1.0023,0,0,1,33.7153,35.2788ZM12.1211,36.293l-.707.707.707.707a1,1,0,1,1-1.4141,1.4141L10,38.4141l-.707.707A1,1,0,1,1,7.8789,37.707L8.5859,37l-.707-.707A1,1,0,1,1,9.293,34.8789l.707.707.707-.707a1,1,0,1,1,1.4141,1.4141ZM51.5,31.6323A1.1324,1.1324,0,1,1,52.6324,30.5,1.1323,1.1323,0,0,1,51.5,31.6323Z"/></g></svg>