<?xml version="1.0" ?><svg width="64px" height="64px" viewBox="0 0 64 64" xmlns="http://www.w3.org/2000/svg" xmlns:xlink="http://www.w3.org/1999/xlink"><defs><style>.cls-1{fill:url(#linear-gradient);}</style><linearGradient gradientUnits="userSpaceOnUse" id="linear-gradient" x1="10.2289" x2="48.5377" y1="57.643" y2="19.3342"><stop offset="0" stop-color="#107eff"/><stop offset="1" stop-color="#8f16ff"/></linearGradient></defs><g id="woman-mask14"><path class="cls-1" d="M39,56v4a1,1,0,0,1-2,0V56a1,1,0,0,1,2,0ZM20,55a1,1,0,0,0-1,1v4a1,1,0,0,0,2,0V56A1,1,0,0,0,20,55Zm38-7.5A3.5,3.5,0,1,1,54.5,44,3.5042,3.5042,0,0,1,58,47.5Zm-2,0A1.5,1.5,0,1,0,54.5,49,1.5017,1.5017,0,0,0,56,47.5ZM34,26a1,1,0,1,0-1-1A1,1,0,0,0,34,26ZM24,26a1,1,0,1,0-1-1A1,1,0,0,0,24,26ZM44,48h-.9073a8.56,8.56,0,0,1,.7271,2.499l1.1724,9.377a1,1,0,0,1-.8682,1.1162A1.0854,1.0854,0,0,1,43.9985,61a1,1,0,0,1-.9907-.876l-1.1724-9.3769A6.569,6.569,0,0,0,40.8209,48H39a1,1,0,0,1-1-1V45.5826A6.5687,6.5687,0,0,0,35.3257,45H33a3.0033,3.0033,0,0,1-3,3H28a3.0033,3.0033,0,0,1-3-3H22.6743A6.5644,6.5644,0,0,0,20,45.5825V47a1,1,0,0,1-1,1H17.1788a6.5582,6.5582,0,0,0-1.0142,2.7471L14.9922,60.124a1,1,0,0,1-.9907.876,1.0854,1.0854,0,0,1-.1255-.0078,1,1,0,0,1-.8682-1.1162L14.18,50.499A8.5427,8.5427,0,0,1,14.9073,48H14a1,1,0,0,1-.999-1.04l1-25L14,21a15,15,0,0,1,30,0v1l.999,24.96A1,1,0,0,1,44,48ZM20.0041,23l.56,5.7461.0016.0112,8.1175-2.7055a1.0014,1.0014,0,0,1,.6328,0l8.116,2.705.009-.06L37.996,23Zm16.8123,9.915.3185-2.15L29,28.0537l-8.1357,2.7116.3193,2.15C21.6758,36.2363,27.106,39,29,39S36.3242,36.2363,36.8164,32.915ZM31,45V40.6049A6.951,6.951,0,0,1,29,41a6.951,6.951,0,0,1-2-.3951V45a1.0009,1.0009,0,0,0,1,1h2A1.0009,1.0009,0,0,0,31,45Zm9,1h2.959L42,21a13,13,0,0,0-26,0v1l-.96,24H18V19a1,1,0,0,1,2,0v2h2V19a1,1,0,0,1,2,0v2h2V19a1,1,0,0,1,2,0v2h2V19a1,1,0,0,1,2,0v2h2V19a1,1,0,0,1,2,0v2h2V19a1,1,0,0,1,2,0V46ZM10.1211,29.8789a1,1,0,0,0-1.4141,0L8,30.5859l-.707-.707A1,1,0,0,0,5.8789,31.293l.707.707-.707.707A1,1,0,1,0,7.293,34.1211L8,33.4141l.707.707a1,1,0,1,0,1.4141-1.4141L9.4141,32l.707-.707A1,1,0,0,0,10.1211,29.8789ZM49.5,24.3676A1.1324,1.1324,0,1,0,50.6324,25.5,1.1324,1.1324,0,0,0,49.5,24.3676ZM32.8145,31.2363A34.4725,34.4725,0,0,1,29,31.7812a34.4725,34.4725,0,0,1-3.8145-.5449,1,1,0,0,0-.371,1.9649,35.5948,35.5948,0,0,0,4.1855.58,35.5948,35.5948,0,0,0,4.1855-.58,1,1,0,0,0-.371-1.9649Zm-1.25,3.2207A18.8493,18.8493,0,0,1,29,34.7812a21.4965,21.4965,0,0,1-2.6118-.332,1,1,0,0,0-.33,1.9727A21.6887,21.6887,0,0,0,29,36.7812a21.1482,21.1482,0,0,0,2.8931-.3515,1,1,0,0,0-.3282-1.9727Z"/></g></svg>