<?xml version="1.0" ?><svg width="64px" height="64px" viewBox="0 0 64 64" xmlns="http://www.w3.org/2000/svg" xmlns:xlink="http://www.w3.org/1999/xlink"><defs><style>.cls-1{fill:url(#linear-gradient);}</style><linearGradient gradientUnits="userSpaceOnUse" id="linear-gradient" x1="11.2421" x2="54.7501" y1="57.6567" y2="14.1487"><stop offset="0" stop-color="#107eff"/><stop offset="1" stop-color="#8f16ff"/></linearGradient></defs><g id="woman-mask19"><path class="cls-1" d="M41,54v7a1,1,0,0,1-2,0V54a1,1,0,0,1,2,0ZM22,53a1,1,0,0,0-1,1v7a1,1,0,0,0,2,0V54A1,1,0,0,0,22,53ZM50,30a6.0073,6.0073,0,0,1-5.35,5.9633,5.9484,5.9484,0,0,1-8.6179,3.2335l-.0318.02V41h1.3252A8.5756,8.5756,0,0,1,45.82,48.499l1.1748,12.4063a.9986.9986,0,0,1-.9,1.09A.7959.7959,0,0,1,45.999,62a1,1,0,0,1-.9941-.9053L43.833,48.7178a6.565,6.565,0,0,0-5.9275-5.6908A6.0048,6.0048,0,0,1,32,48v2a1,1,0,0,1-2,0V48a6.0048,6.0048,0,0,1-5.9055-4.973,6.5732,6.5732,0,0,0-5.93,5.72l-1.169,12.3476A1,1,0,0,1,16.001,62a.7959.7959,0,0,1-.0957-.0049.998.998,0,0,1-.9-1.09l1.1719-12.377A8.5816,8.5816,0,0,1,24.6748,41H26V39.2166l-.0326-.02a5.9465,5.9465,0,0,1-8.6167-3.233A5.9959,5.9959,0,0,1,15,24.8086V21a16,16,0,0,1,32,0v3.8086A6,6,0,0,1,50,30ZM21.8486,27.8828a1.0011,1.0011,0,0,1,.71.8135l.009.06,8.116-2.705a1.0014,1.0014,0,0,1,.6328,0l8.116,2.705.009-.06a1.0011,1.0011,0,0,1,.71-.8135A2.5325,2.5325,0,0,0,42,25.4414v-.3906a1.0426,1.0426,0,0,0-1.0146-1.0459C34.0625,24,31.2617,20.4746,30.3926,19H22v4.0049a1,1,0,0,1-.9756,1A1.042,1.042,0,0,0,20,25.0508v.3906A2.5325,2.5325,0,0,0,21.8486,27.8828ZM38.8164,32.915l.3185-2.15L31,28.0537l-8.1349,2.7114.3185,2.15C23.6758,36.2363,29.1064,39,31,39S38.3242,36.2363,38.8164,32.915ZM34,42V40.2324A8.6308,8.6308,0,0,1,31,41a8.6308,8.6308,0,0,1-3-.7676V42a1,1,0,0,1-1,1h-.858A3.9955,3.9955,0,0,0,30,46h2a3.9955,3.9955,0,0,0,3.858-3H35A1,1,0,0,1,34,42ZM48,30a4.0011,4.0011,0,0,0-2.4014-3.6621A1,1,0,0,1,45,25.4219V21a14,14,0,0,0-28,0v4.4219a1,1,0,0,1-.5986.916,3.9964,3.9964,0,1,0,4.7009,6.1767L20.93,31.3492A.9956.9956,0,0,1,19,31V28.2521a4.5161,4.5161,0,0,1-1-2.8107v-.3906a3.0267,3.0267,0,0,1,2-2.8643V18a1,1,0,0,1,1-1H31a1,1,0,0,1,.9287.6289c.0723.1719,1.9111,4.376,9.0713,4.376h.0244A3.0307,3.0307,0,0,1,44,25.0508v.3906a4.5161,4.5161,0,0,1-1,2.8107V31a.9956.9956,0,0,1-1.93.349l-.1726,1.1645A3.9936,3.9936,0,0,0,48,30ZM60,46.5A3.5,3.5,0,1,1,56.5,43,3.5042,3.5042,0,0,1,60,46.5Zm-2,0A1.5,1.5,0,1,0,56.5,48,1.5017,1.5017,0,0,0,58,46.5ZM36,26a1,1,0,1,0-1-1A1,1,0,0,0,36,26ZM26,24a1,1,0,1,0,1,1A1,1,0,0,0,26,24Zm-2-1h2a1,1,0,0,0,0-2H24a1,1,0,0,0,0,2ZM11.1211,40.8789a1,1,0,0,0-1.4141,0L9,41.5859l-.707-.707A1,1,0,1,0,6.8789,42.293l.707.707-.707.707A1,1,0,1,0,8.293,45.1211L9,44.4141l.707.707a1,1,0,1,0,1.4141-1.4141L10.4141,43l.707-.707A1,1,0,0,0,11.1211,40.8789ZM53.6324,13.5A1.1324,1.1324,0,1,0,52.5,14.6323,1.1324,1.1324,0,0,0,53.6324,13.5ZM34.8145,31.2363A34.5062,34.5062,0,0,1,31,31.7812a34.5062,34.5062,0,0,1-3.8145-.5449,1,1,0,0,0-.371,1.9649,35.61,35.61,0,0,0,4.1855.58,35.61,35.61,0,0,0,4.1855-.58,1,1,0,0,0-.371-1.9649Zm-1.25,3.2207A18.831,18.831,0,0,1,31,34.7812a21.5243,21.5243,0,0,1-2.6123-.332,1,1,0,0,0-.33,1.9727A21.7111,21.7111,0,0,0,31,36.7812a21.109,21.109,0,0,0,2.8926-.3515,1,1,0,0,0-.3281-1.9727Z"/></g></svg>