<?xml version="1.0" ?><svg width="64px" height="64px" viewBox="0 0 64 64" xmlns="http://www.w3.org/2000/svg" xmlns:xlink="http://www.w3.org/1999/xlink"><defs><style>.cls-1{fill:url(#linear-gradient);}</style><linearGradient gradientUnits="userSpaceOnUse" id="linear-gradient" x1="11.4274" x2="52.5773" y1="57.8419" y2="16.692"><stop offset="0" stop-color="#107eff"/><stop offset="1" stop-color="#8f16ff"/></linearGradient></defs><g id="woman-mask9"><path class="cls-1" d="M42,55v7a1,1,0,0,1-2,0V55a1,1,0,0,1,2,0ZM23,54a1,1,0,0,0-1,1v7a1,1,0,0,0,2,0V55A1,1,0,0,0,23,54Zm23.82-4.501,1.1748,12.4068a.9989.9989,0,0,1-.9,1.09c-.0322.0029-.0644.0044-.0957.0044a1,1,0,0,1-.9941-.9058L44.833,49.7173a6.5649,6.5649,0,0,0-5.9265-5.69A5.9711,5.9711,0,0,1,33,49H31a5.9608,5.9608,0,0,1-5.9068-4.9729,6.5732,6.5732,0,0,0-5.9291,5.72l-1.169,12.3471A1,1,0,0,1,17.001,63c-.0313,0-.0635-.0015-.0957-.0044a.9989.9989,0,0,1-.9-1.09l1.1719-12.377A8.5816,8.5816,0,0,1,25.6748,42H27V39.2166q-.1749-.1053-.3484-.2166H21a1,1,0,0,1-.9961-.9136l-2-23.1C18,8.89,22.4863,4,28,4h8c5.5137,0,10,4.89,10,10.9L43.9961,38.0864A1,1,0,0,1,43,39H37.3484q-.1735.111-.3484.2166V42h1.3252A8.5756,8.5756,0,0,1,46.82,49.499ZM32,39c1.8945,0,7.3242-2.7642,7.8164-6.085l.3184-2.1491L32,28.0542l-8.1348,2.7117.3184,2.1491C24.6758,36.2358,30.1055,39,32,39ZM43,25.0508A1.04,1.04,0,0,0,42,24.01v1.2576A2.7353,2.7353,0,0,1,39.2676,28H38.1623l2.27.7568.0089-.06a1,1,0,0,1,.71-.8135A2.5337,2.5337,0,0,0,43,25.4409ZM36.7412,26h2.5264A.733.733,0,0,0,40,25.2676V22H24v3.2676A.733.733,0,0,0,24.7324,26h2.5264a3.7322,3.7322,0,0,0,3.3223-2.019,1.6023,1.6023,0,0,1,2.8378.0009A3.733,3.733,0,0,0,36.7412,26Zm-5.2242.1068.1666-.0555a1.0014,1.0014,0,0,1,.6328,0l.1661.0553A5.7216,5.7216,0,0,1,32,25.499,5.7384,5.7384,0,0,1,31.517,26.1068ZM40.7548,20a7.31,7.31,0,0,0-.8193-2H31.2a1.002,1.002,0,0,1-.7813-.3755L29,15.8506V17a1,1,0,0,1-1,1H24.0645a7.31,7.31,0,0,0-.8193,2ZM22,25.2676V24.01a1.04,1.04,0,0,0-1,1.0408v.39a2.5337,2.5337,0,0,0,1.8486,2.4424,1,1,0,0,1,.71.8135l.0089.06L25.8377,28H24.7324A2.7353,2.7353,0,0,1,22,25.2676ZM20,14.9l.6459,7.4465A3.0333,3.0333,0,0,1,21,22.187V22a9.5458,9.5458,0,0,1,1.7012-5.5718,1,1,0,0,1,.82-.4282H27V13a1,1,0,0,1,1.7812-.6245L31.6807,16h8.7978a1,1,0,0,1,.82.4282A9.5458,9.5458,0,0,1,43,22v.187a3.0269,3.0269,0,0,1,.3518.1583l.6521-7.5318C44,9.9927,40.4111,6,36,6H28C23.5889,6,20,9.9927,20,14.9ZM36.87,44H36a1,1,0,0,1-1-1V40.2324A8.6308,8.6308,0,0,1,32,41a8.6308,8.6308,0,0,1-3-.7676V43a1,1,0,0,1-1,1h-.8672A3.97,3.97,0,0,0,31,47h2A3.98,3.98,0,0,0,36.87,44ZM57,42.5A3.5,3.5,0,1,1,53.5,39,3.5042,3.5042,0,0,1,57,42.5Zm-2,0A1.5,1.5,0,1,0,53.5,44,1.5017,1.5017,0,0,0,55,42.5ZM36.1855,33.2012a1,1,0,0,0-.371-1.9649A34.5062,34.5062,0,0,1,32,31.7812a34.5062,34.5062,0,0,1-3.8145-.5449,1,1,0,0,0-.371,1.9649,35.61,35.61,0,0,0,4.1855.58A35.61,35.61,0,0,0,36.1855,33.2012ZM34.8936,36.43a1,1,0,0,0-.33-1.9727A21.0374,21.0374,0,0,1,32,34.7812a21.3321,21.3321,0,0,1-2.6113-.3325,1,1,0,0,0-.3321,1.9727,21.5937,21.5937,0,0,0,2.9434.36A21.2605,21.2605,0,0,0,34.8936,36.43ZM12.1211,28.8789a1,1,0,0,0-1.4141,0l-.707.707-.707-.707A1,1,0,0,0,7.8789,30.293l.707.707-.707.707A1,1,0,1,0,9.293,33.1211l.707-.707.707.707a1,1,0,1,0,1.4141-1.4141L11.4141,31l.707-.707A1,1,0,0,0,12.1211,28.8789ZM51.5,25.6323A1.1324,1.1324,0,1,0,50.3676,24.5,1.1323,1.1323,0,0,0,51.5,25.6323Z"/></g></svg>