<svg width="300" height="225" viewBox="0 0 300 225" fill="none" xmlns="http://www.w3.org/2000/svg">
<rect width="300" height="225" fill="white"/>
<path d="M20.1271 40.0781L24.0825 38.76L24.7856 39.0825C26.3875 39.9031 28.1259 40.3134 30.0009 40.3134C33.1846 40.2159 35.8359 39.1759 37.9546 37.1934C40.0734 35.2109 41.1721 32.8134 41.2509 30.0009C41.1728 27.1884 40.074 24.7909 37.9546 22.8084C35.8353 20.8259 33.184 19.7859 30.0009 19.6884C26.8171 19.7859 24.1659 20.8259 22.0471 22.8084C19.9284 24.7909 18.8296 27.1884 18.7509 30.0009C18.7509 31.0165 18.9268 32.0225 19.2787 33.0187C19.6306 34.015 20.1481 34.9525 20.8312 35.8312L21.4762 36.6806L20.1271 40.0781ZM18.779 42.4809C18.4078 42.5984 18.0903 42.5153 17.8265 42.2315C17.5628 41.9478 17.4993 41.6206 17.6362 41.25L19.3359 36.9721C18.5546 35.9371 17.949 34.8287 17.519 33.6468C17.089 32.465 16.874 31.249 16.874 29.999C16.9521 26.7765 18.2021 23.969 20.624 21.5765C23.0459 19.184 26.1709 17.929 29.999 17.8115C33.8271 17.929 36.9521 19.184 39.374 21.5765C41.7959 23.969 43.0459 26.7765 43.124 29.999C43.0459 33.2215 41.7959 36.029 39.374 38.4215C36.9521 40.814 33.8271 42.069 29.999 42.1865C27.8703 42.1865 25.8487 41.7178 23.9343 40.7803L18.779 42.4809ZM30 31.4943C29.7262 31.4943 29.4771 31.4309 29.2528 31.304C29.0284 31.1771 28.8478 30.9915 28.7109 30.7471C28.574 30.5028 28.5056 30.2537 28.5056 30C28.5056 29.7462 28.574 29.4971 28.7109 29.2528C28.8478 29.0084 29.0284 28.8228 29.2528 28.6959C29.4771 28.569 29.7262 28.5056 30 28.5056C30.43 28.5056 30.7865 28.6471 31.0696 28.9303C31.3528 29.2134 31.4943 29.57 31.4943 30C31.4943 30.43 31.3528 30.7865 31.0696 31.0696C30.7865 31.3528 30.43 31.4943 30 31.4943V31.4943ZM35.625 31.4943C35.3512 31.4943 35.1021 31.4309 34.8778 31.304C34.6534 31.1771 34.4728 30.9915 34.3359 30.7471C34.199 30.5028 34.1306 30.2537 34.1306 30C34.1306 29.7462 34.199 29.4971 34.3359 29.2528C34.4728 29.0084 34.6534 28.8228 34.8778 28.6959C35.1021 28.569 35.3512 28.5056 35.625 28.5056C36.055 28.5056 36.4115 28.6471 36.6946 28.9303C36.9778 29.2134 37.1193 29.57 37.1193 30C37.1193 30.43 36.9778 30.7865 36.6946 31.0696C36.4115 31.3528 36.055 31.4943 35.625 31.4943V31.4943ZM24.375 31.4943C24.1012 31.4943 23.8521 31.4309 23.6278 31.304C23.4034 31.1771 23.2228 30.9915 23.0859 30.7471C22.949 30.5028 22.8806 30.2537 22.8806 30C22.8806 29.7462 22.949 29.4971 23.0859 29.2528C23.2228 29.0084 23.4034 28.8228 23.6278 28.6959C23.8521 28.569 24.1012 28.5056 24.375 28.5056C24.805 28.5056 25.1615 28.6471 25.4446 28.9303C25.7278 29.2134 25.8693 29.57 25.8693 30C25.8693 30.43 25.7278 30.7865 25.4446 31.0696C25.1615 31.3528 24.805 31.4943 24.375 31.4943V31.4943Z" fill="#08080A" fill-opacity="0.96"/>
<circle cx="30" cy="30" r="30" fill="#48EC9D" fill-opacity="0.2"/>
<path d="M110 30C111.602 29.9606 112.93 29.4138 113.984 28.3594C115.039 27.305 115.586 25.9769 115.625 24.375C115.586 22.7731 115.039 21.445 113.984 20.3906C112.93 19.3362 111.602 18.7894 110 18.75C108.398 18.7894 107.07 19.3362 106.016 20.3906C104.961 21.445 104.414 22.7731 104.375 24.375C104.414 25.9769 104.961 27.305 106.016 28.3594C107.07 29.4138 108.398 29.9606 110 30ZM110 31.875C107.871 31.8162 106.104 31.0838 104.697 29.6775C103.291 28.2713 102.559 26.5037 102.5 24.375C102.559 22.2463 103.291 20.4787 104.697 19.0725C106.104 17.6662 107.871 16.9338 110 16.875C112.129 16.9338 113.896 17.6662 115.303 19.0725C116.709 20.4787 117.441 22.2463 117.5 24.375C117.441 26.5037 116.709 28.2713 115.303 29.6775C113.896 31.0838 112.129 31.8162 110 31.875ZM110 30C110.274 30 110.498 30.0878 110.674 30.2634C110.85 30.4391 110.938 30.6638 110.938 30.9375V38.4375C110.938 38.7112 110.85 38.9359 110.674 39.1116C110.498 39.2872 110.274 39.375 110 39.375C109.726 39.375 109.502 39.2872 109.326 39.1116C109.15 38.9359 109.062 38.7112 109.062 38.4375V30.9375C109.062 30.6638 109.15 30.4391 109.326 30.2634C109.502 30.0878 109.726 30 110 30V30ZM106.25 34.0134V35.9175C104.551 36.2106 103.193 36.5962 102.178 37.0744C101.162 37.5525 100.644 38.0066 100.625 38.4366C100.684 39.0422 101.587 39.6525 103.335 40.2675C105.083 40.8825 107.305 41.2097 110 41.2491C112.696 41.2097 114.917 40.8825 116.665 40.2675C118.412 39.6525 119.316 39.0422 119.375 38.4366C119.356 38.0066 118.838 37.5525 117.822 37.0744C116.807 36.5962 115.449 36.2106 113.75 35.9175V34.0134C115.977 34.3453 117.774 34.9069 119.141 35.6981C120.507 36.4894 121.211 37.4025 121.25 38.4375C121.172 39.7656 120.073 40.8691 117.954 41.7478C115.834 42.6266 113.183 43.0856 110 43.125C106.816 43.0856 104.165 42.6266 102.046 41.7478C99.9275 40.8691 98.8287 39.7656 98.75 38.4375C98.7894 37.4025 99.4925 36.4894 100.859 35.6981C102.226 34.9069 104.023 34.3453 106.25 34.0134Z" fill="#08080A" fill-opacity="0.96"/>
<circle cx="110" cy="30" r="30" fill="#8DFF33" fill-opacity="0.2"/>
<path d="M178.75 26.25V39.375H201.25V26.25H178.75ZM177.812 24.375H202.188C202.461 24.375 202.686 24.4628 202.862 24.6384C203.037 24.8141 203.125 25.0388 203.125 25.3125V40.3125C203.125 40.5862 203.037 40.8109 202.862 40.9866C202.686 41.1622 202.461 41.25 202.188 41.25H177.812C177.539 41.25 177.314 41.1622 177.138 40.9866C176.963 40.8109 176.875 40.5862 176.875 40.3125V25.3125C176.875 25.0388 176.963 24.8141 177.138 24.6384C177.314 24.4628 177.539 24.375 177.812 24.375ZM179.688 20.625H200.312V22.5H179.688V20.625ZM182.5 16.875H197.5V18.75H182.5V16.875Z" fill="#08080A" fill-opacity="0.96"/>
<circle cx="190" cy="30" r="30" fill="#F76D6D" fill-opacity="0.2"/>
<path d="M265.518 37.5H259.688C259.414 37.5 259.189 37.4122 259.013 37.2366C258.838 37.0609 258.75 36.8363 258.75 36.5625V20.625H256.875C256.601 20.625 256.377 20.5372 256.201 20.3616C256.025 20.1859 255.938 19.9613 255.938 19.6875C255.938 19.4137 256.025 19.1891 256.201 19.0134C256.377 18.8378 256.601 18.75 256.875 18.75H283.125C283.399 18.75 283.623 18.8378 283.799 19.0134C283.975 19.1891 284.062 19.4137 284.062 19.6875C284.062 19.9613 283.975 20.1859 283.799 20.3616C283.623 20.5372 283.399 20.625 283.125 20.625H281.25V36.5625C281.25 36.8363 281.162 37.0609 280.987 37.2366C280.811 37.4122 280.586 37.5 280.312 37.5H274.482L277.734 43.125H275.566L272.314 37.5H267.684L264.432 43.125H262.264L265.518 37.5ZM279.375 20.625H260.625V35.625H279.375V20.625ZM265.049 30.6741C264.853 30.8497 264.629 30.9375 264.375 30.9375C264.121 30.9375 263.902 30.8447 263.716 30.6591C263.53 30.4734 263.438 30.2537 263.438 30C263.438 29.7463 263.525 29.5216 263.701 29.3259L268.037 25.0191L271.699 27.7734L274.892 23.7891C275.126 23.4959 275.424 23.3738 275.785 23.4225C276.147 23.4713 276.391 23.6666 276.517 24.0084C276.644 24.3503 276.591 24.6678 276.356 24.9609L272.049 30.3516L268.211 27.48L265.049 30.6741Z" fill="#08080A" fill-opacity="0.96"/>
<circle cx="270" cy="30" r="30" fill="#4857EC" fill-opacity="0.2"/>
<path d="M31.08 121.423C29.8822 122.532 28.258 123.155 26.5643 123.155C24.8707 123.155 23.2464 122.532 22.0486 121.423M21.774 114.285H21.79M31.3547 114.285H31.3706M40.9353 117.242C40.9353 118.99 40.5636 120.72 39.8414 122.334C39.1192 123.949 38.0606 125.416 36.7261 126.651C35.3917 127.887 33.8074 128.867 32.0639 129.536C30.3203 130.205 28.4515 130.549 26.5643 130.549C24.6771 130.549 22.8084 130.205 21.0648 129.536C19.3212 128.867 17.737 127.887 16.4025 126.651C15.0681 125.416 14.0095 123.949 13.2873 122.334C12.5651 120.72 12.1934 118.99 12.1934 117.242C12.1934 113.713 13.7074 110.328 16.4025 107.833C19.0976 105.337 22.7529 103.936 26.5643 103.936C30.3757 103.936 34.0311 105.337 36.7261 107.833C39.4212 110.328 40.9353 113.713 40.9353 117.242Z" stroke="#4857EC" stroke-width="3" stroke-linecap="round" stroke-linejoin="round"/>
<circle cx="27" cy="117" r="27" fill="#4857EC" fill-opacity="0.1"/>
<path d="M111.887 121.423C110.689 122.532 109.065 123.155 107.371 123.155C105.677 123.155 104.053 122.532 102.855 121.423M102.581 114.285H102.597M112.161 114.285H112.177M121.742 117.242C121.742 118.99 121.37 120.72 120.648 122.334C119.926 123.949 118.867 125.416 117.533 126.651C116.198 127.887 114.614 128.867 112.87 129.536C111.127 130.205 109.258 130.549 107.371 130.549C105.484 130.549 103.615 130.205 101.871 129.536C100.128 128.867 98.5436 127.887 97.2092 126.651C95.8747 125.416 94.8161 123.949 94.0939 122.334C93.3717 120.72 93 118.99 93 117.242C93 113.713 94.5141 110.328 97.2092 107.833C99.9042 105.337 103.56 103.936 107.371 103.936C111.182 103.936 114.838 105.337 117.533 107.833C120.228 110.328 121.742 113.713 121.742 117.242Z" stroke="#C66464" stroke-width="3" stroke-linecap="round" stroke-linejoin="round"/>
<circle cx="107" cy="117" r="27" fill="#FFD6D6" fill-opacity="0.5"/>
<path d="M200.841 122.334C201.564 120.72 201.935 118.99 201.935 117.242C201.935 113.713 200.421 110.328 197.726 107.833C195.031 105.337 191.376 103.936 187.564 103.936C183.753 103.936 180.098 105.337 177.403 107.833C174.707 110.328 173.193 113.713 173.193 117.242C173.193 118.99 173.565 120.72 174.287 122.334C175.009 123.949 176.068 125.416 177.403 126.651C178.737 127.887 180.321 128.867 182.065 129.536C183.808 130.205 185.677 130.549 187.564 130.549C189.452 130.549 191.32 130.205 193.064 129.536C194.807 128.867 196.392 127.887 197.726 126.651C199.061 125.416 200.119 123.949 200.841 122.334Z" fill="#E8FFD6"/>
<path d="M192.08 121.423C190.882 122.532 189.258 123.155 187.564 123.155C185.871 123.155 184.246 122.532 183.049 121.423M182.774 114.285H182.79M192.355 114.285H192.371M201.935 117.242C201.935 118.99 201.564 120.72 200.841 122.334C200.119 123.949 199.061 125.416 197.726 126.651C196.392 127.887 194.807 128.867 193.064 129.536C191.32 130.205 189.452 130.549 187.564 130.549C185.677 130.549 183.808 130.205 182.065 129.536C180.321 128.867 178.737 127.887 177.403 126.651C176.068 125.416 175.009 123.949 174.287 122.334C173.565 120.72 173.193 118.99 173.193 117.242C173.193 113.713 174.707 110.328 177.403 107.833C180.098 105.337 183.753 103.936 187.564 103.936C191.376 103.936 195.031 105.337 197.726 107.833C200.421 110.328 201.935 113.713 201.935 117.242Z" stroke="#6AAF35" stroke-width="3" stroke-linecap="round" stroke-linejoin="round"/>
<circle cx="188" cy="117" r="27" fill="#BCFF87" fill-opacity="0.5"/>
<path d="M248.641 174.537C248.39 173.821 247.296 173.821 247.044 174.537L245.768 178.172C245.713 178.328 245.606 178.464 245.463 178.561C245.319 178.657 245.146 178.709 244.969 178.709H240.842C240.029 178.709 239.689 179.673 240.348 180.117L243.687 182.363C243.831 182.459 243.938 182.595 243.992 182.752C244.047 182.908 244.047 183.076 243.992 183.232L242.717 186.867C242.465 187.584 243.351 188.18 244.009 187.737L247.349 185.491C247.492 185.394 247.665 185.342 247.842 185.342C248.02 185.342 248.193 185.394 248.336 185.491L251.676 187.737C252.334 188.18 253.22 187.584 252.968 186.867L251.693 183.232C251.638 183.076 251.638 182.908 251.693 182.752C251.747 182.595 251.854 182.459 251.998 182.363L255.337 180.117C255.995 179.673 255.657 178.709 254.843 178.709H250.715C250.538 178.709 250.365 178.657 250.222 178.56C250.079 178.464 249.972 178.328 249.917 178.172L248.641 174.537Z" fill="#F9C94E"/>
<path d="M266.641 174.537C266.39 173.821 265.296 173.821 265.044 174.537L263.768 178.172C263.713 178.328 263.606 178.464 263.463 178.561C263.319 178.657 263.146 178.709 262.969 178.709H258.842C258.029 178.709 257.689 179.673 258.348 180.117L261.687 182.363C261.831 182.459 261.938 182.595 261.992 182.752C262.047 182.908 262.047 183.076 261.992 183.232L260.717 186.867C260.465 187.584 261.351 188.18 262.009 187.737L265.349 185.491C265.492 185.394 265.665 185.342 265.842 185.342C266.02 185.342 266.193 185.394 266.336 185.491L269.676 187.737C270.334 188.18 271.22 187.584 270.968 186.867L269.693 183.232C269.638 183.076 269.638 182.908 269.693 182.752C269.747 182.595 269.854 182.459 269.998 182.363L273.337 180.117C273.995 179.673 273.657 178.709 272.843 178.709H268.715C268.538 178.709 268.365 178.657 268.222 178.56C268.079 178.464 267.972 178.328 267.917 178.172L266.641 174.537Z" stroke="#F9C94E" stroke-linecap="round" stroke-linejoin="round"/>
<g clip-path="url(#clip0_3458_2403)">
<path d="M20 184C20 178.477 15.5229 174 10 174C4.47715 174 0 178.477 0 184C0 188.991 3.65684 193.128 8.4375 193.879V186.891H5.89844V184H8.4375V181.797C8.4375 179.291 9.93047 177.906 12.2146 177.906C13.3084 177.906 14.4531 178.102 14.4531 178.102V180.563H13.1922C11.95 180.563 11.5625 181.333 11.5625 182.125V184H14.3359L13.8926 186.891H11.5625V193.879C16.3432 193.128 20 188.991 20 184Z" fill="black"/>
</g>
<path d="M60.0059 175.801C62.6793 175.801 62.9959 175.813 64.0473 175.86C65.0244 175.903 65.5521 176.067 65.9038 176.204C66.369 176.383 66.7051 176.602 67.053 176.95C67.4047 177.301 67.6197 177.634 67.7995 178.098C67.9363 178.45 68.1004 178.981 68.1434 179.954C68.1903 181.009 68.2021 181.326 68.2021 183.994C68.2021 186.667 68.1903 186.983 68.1434 188.034C68.1004 189.011 67.9363 189.538 67.7995 189.89C67.6197 190.355 67.4008 190.691 67.053 191.038C66.7012 191.39 66.369 191.605 65.9038 191.785C65.5521 191.921 65.0205 192.086 64.0473 192.129C62.992 192.175 62.6754 192.187 60.0059 192.187C57.3324 192.187 57.0158 192.175 55.9644 192.129C54.9873 192.086 54.4596 191.921 54.1079 191.785C53.6428 191.605 53.3066 191.386 52.9588 191.038C52.607 190.687 52.392 190.355 52.2122 189.89C52.0754 189.538 51.9113 189.007 51.8683 188.034C51.8214 186.979 51.8097 186.663 51.8097 183.994C51.8097 181.322 51.8214 181.005 51.8683 179.954C51.9113 178.978 52.0754 178.45 52.2122 178.098C52.392 177.634 52.6109 177.298 52.9588 176.95C53.3105 176.598 53.6428 176.383 54.1079 176.204C54.4596 176.067 54.9912 175.903 55.9644 175.86C57.0158 175.813 57.3324 175.801 60.0059 175.801ZM60.0059 174C57.2894 174 56.9494 174.012 55.8824 174.059C54.8192 174.105 54.0883 174.277 53.4551 174.524C52.7946 174.781 52.2357 175.121 51.6807 175.68C51.1218 176.235 50.7817 176.794 50.5237 177.45C50.2775 178.087 50.1055 178.813 50.0586 179.876C50.0117 180.947 50 181.287 50 184.002C50 186.717 50.0117 187.057 50.0586 188.124C50.1055 189.187 50.2775 189.917 50.5237 190.55C50.7817 191.21 51.1218 191.769 51.6807 192.324C52.2357 192.879 52.7946 193.223 53.4512 193.476C54.0883 193.723 54.8153 193.895 55.8784 193.941C56.9455 193.988 57.2855 194 60.002 194C62.7184 194 63.0584 193.988 64.1255 193.941C65.1886 193.895 65.9195 193.723 66.5527 193.476C67.2093 193.223 67.7682 192.879 68.3232 192.324C68.8782 191.769 69.2222 191.21 69.4763 190.554C69.7225 189.917 69.8945 189.19 69.9414 188.128C69.9883 187.061 70 186.721 70 184.006C70 181.29 69.9883 180.951 69.9414 179.884C69.8945 178.821 69.7225 178.091 69.4763 177.458C69.23 176.794 68.89 176.235 68.3311 175.68C67.776 175.125 67.2171 174.781 66.5605 174.527C65.9234 174.281 65.1964 174.109 64.1333 174.063C63.0623 174.012 62.7223 174 60.0059 174Z" fill="black"/>
<path d="M60.0059 178.864C57.1683 178.864 54.8662 181.165 54.8662 184.002C54.8662 186.838 57.1683 189.14 60.0059 189.14C62.8435 189.14 65.1457 186.838 65.1457 184.002C65.1457 181.165 62.8435 178.864 60.0059 178.864ZM60.0059 187.335C58.165 187.335 56.672 185.842 56.672 184.002C56.672 182.162 58.165 180.669 60.0059 180.669C61.8469 180.669 63.3399 182.162 63.3399 184.002C63.3399 185.842 61.8469 187.335 60.0059 187.335Z" fill="black"/>
<path d="M66.5483 178.661C66.5483 179.325 66.0089 179.86 65.3484 179.86C64.6839 179.86 64.1484 179.321 64.1484 178.661C64.1484 177.997 64.6878 177.462 65.3484 177.462C66.0089 177.462 66.5483 178.001 66.5483 178.661Z" fill="black"/>
<g clip-path="url(#clip1_3458_2403)">
<path d="M119.601 179.155C119.488 178.729 119.265 178.341 118.955 178.028C118.645 177.716 118.258 177.491 117.833 177.375C116.27 176.955 110.02 176.955 110.02 176.955C110.02 176.955 103.77 176.955 102.206 177.375C101.781 177.491 101.394 177.716 101.084 178.028C100.774 178.341 100.551 178.729 100.438 179.155C100.02 180.725 100.02 184 100.02 184C100.02 184 100.02 187.275 100.438 188.845C100.551 189.271 100.774 189.659 101.084 189.972C101.394 190.284 101.781 190.509 102.206 190.625C103.77 191.045 110.02 191.045 110.02 191.045C110.02 191.045 116.27 191.045 117.833 190.625C118.258 190.509 118.645 190.284 118.955 189.972C119.265 189.659 119.488 189.271 119.601 188.845C120.02 187.275 120.02 184 120.02 184C120.02 184 120.02 180.725 119.601 179.155Z" fill="black"/>
<path d="M107.975 186.974V181.026L113.202 184L107.975 186.974Z" fill="#FEFEFE"/>
</g>
<g clip-path="url(#clip2_3458_2403)">
<path fill-rule="evenodd" clip-rule="evenodd" d="M160 174.417C157.626 174.418 155.33 175.259 153.523 176.789C151.715 178.319 150.513 180.438 150.133 182.768C149.753 185.098 150.218 187.487 151.447 189.507C152.675 191.527 154.586 193.046 156.838 193.794C157.334 193.886 157.521 193.578 157.521 193.317C157.521 193.055 157.512 192.296 157.508 191.466C154.726 192.067 154.138 190.292 154.138 190.292C153.685 189.139 153.029 188.837 153.029 188.837C152.122 188.221 153.097 188.232 153.097 188.232C154.102 188.303 154.63 189.258 154.63 189.258C155.521 190.778 156.97 190.338 157.54 190.081C157.629 189.438 157.889 189 158.176 188.751C155.953 188.501 153.619 187.648 153.619 183.838C153.605 182.85 153.973 181.894 154.648 181.169C154.546 180.919 154.203 179.908 154.746 178.534C154.746 178.534 155.586 178.268 157.497 179.554C159.136 179.108 160.865 179.108 162.504 179.554C164.413 178.268 165.251 178.534 165.251 178.534C165.796 179.904 165.453 180.915 165.351 181.169C166.028 181.894 166.397 182.852 166.382 183.841C166.382 187.659 164.042 188.501 161.817 188.746C162.175 189.056 162.494 189.66 162.494 190.588C162.494 191.919 162.483 192.989 162.483 193.317C162.483 193.582 162.663 193.891 163.17 193.794C165.422 193.046 167.333 191.526 168.561 189.506C169.789 187.486 170.255 185.097 169.874 182.767C169.493 180.436 168.291 178.317 166.483 176.787C164.675 175.257 162.378 174.417 160.004 174.417H160Z" fill="black"/>
<path d="M153.787 188.693C153.766 188.743 153.686 188.757 153.622 188.723C153.557 188.688 153.509 188.624 153.532 188.573C153.555 188.522 153.633 188.509 153.698 188.543C153.762 188.578 153.812 188.644 153.787 188.693Z" fill="black"/>
<path d="M154.192 189.143C154.158 189.16 154.119 189.165 154.081 189.156C154.044 189.148 154.011 189.127 153.987 189.097C153.922 189.028 153.909 188.932 153.959 188.889C154.009 188.846 154.098 188.866 154.163 188.935C154.227 189.004 154.242 189.1 154.192 189.143Z" fill="black"/>
<path d="M154.587 189.714C154.525 189.757 154.421 189.714 154.363 189.629C154.347 189.613 154.334 189.595 154.326 189.574C154.317 189.554 154.312 189.532 154.312 189.51C154.312 189.488 154.317 189.466 154.326 189.446C154.334 189.425 154.347 189.407 154.363 189.391C154.424 189.35 154.529 189.391 154.587 189.475C154.645 189.559 154.646 189.671 154.587 189.714V189.714Z" fill="black"/>
<path d="M155.122 190.267C155.067 190.328 154.956 190.312 154.865 190.23C154.774 190.147 154.752 190.035 154.807 189.976C154.862 189.917 154.973 189.933 155.067 190.014C155.161 190.094 155.18 190.208 155.122 190.267V190.267Z" fill="black"/>
<path d="M155.871 190.59C155.847 190.667 155.734 190.702 155.621 190.669C155.509 190.636 155.434 190.544 155.456 190.465C155.477 190.386 155.592 190.35 155.706 190.386C155.82 190.422 155.893 190.509 155.871 190.59Z" fill="black"/>
<path d="M156.69 190.646C156.69 190.727 156.597 190.796 156.478 190.797C156.358 190.799 156.261 190.733 156.261 190.653C156.261 190.572 156.353 190.503 156.473 190.501C156.592 190.499 156.69 190.564 156.69 190.646Z" fill="black"/>
<path d="M157.452 190.519C157.467 190.6 157.384 190.684 157.265 190.704C157.145 190.723 157.041 190.676 157.026 190.597C157.011 190.518 157.097 190.432 157.213 190.411C157.329 190.389 157.437 190.439 157.452 190.519Z" fill="black"/>
</g>
<path d="M208.24 182.39C207.67 182.39 207.22 182.89 207.22 183.5C207.22 184.11 207.68 184.61 208.24 184.61C208.81 184.61 209.26 184.11 209.26 183.5C209.27 182.89 208.81 182.39 208.24 182.39ZM211.89 182.39C211.32 182.39 210.87 182.89 210.87 183.5C210.87 184.11 211.33 184.61 211.89 184.61C212.46 184.61 212.91 184.11 212.91 183.5C212.91 182.89 212.46 182.39 211.89 182.39Z" fill="black"/>
<path d="M216.75 174H203.35C202.22 174 201.3 174.92 201.3 176.06V189.58C201.3 190.72 202.22 191.64 203.35 191.64H214.69L214.16 189.79L215.44 190.98L216.65 192.1L218.8 194V176.06C218.8 174.92 217.88 174 216.75 174ZM212.89 187.06C212.89 187.06 212.53 186.63 212.23 186.25C213.54 185.88 214.04 185.06 214.04 185.06C213.63 185.33 213.24 185.52 212.89 185.65C212.39 185.86 211.91 186 211.44 186.08C210.48 186.26 209.6 186.21 208.85 186.07C208.28 185.96 207.79 185.8 207.38 185.64C207.15 185.55 206.9 185.44 206.65 185.3C206.62 185.28 206.59 185.27 206.56 185.25C206.54 185.24 206.53 185.23 206.52 185.22C206.34 185.12 206.24 185.05 206.24 185.05C206.24 185.05 206.72 185.85 207.99 186.23C207.69 186.61 207.32 187.06 207.32 187.06C205.11 186.99 204.27 185.54 204.27 185.54C204.27 182.32 205.71 179.71 205.71 179.71C207.15 178.63 208.52 178.66 208.52 178.66L208.62 178.78C206.82 179.3 205.99 180.09 205.99 180.09C205.99 180.09 206.21 179.97 206.58 179.8C207.65 179.33 208.5 179.2 208.85 179.17C208.91 179.16 208.96 179.15 209.02 179.15C209.63 179.07 210.32 179.05 211.04 179.13C211.99 179.24 213.01 179.52 214.05 180.09C214.05 180.09 213.26 179.34 211.56 178.82L211.7 178.66C211.7 178.66 213.07 178.63 214.51 179.71C214.51 179.71 215.95 182.32 215.95 185.54C215.95 185.54 215.1 186.99 212.89 187.06V187.06Z" fill="black"/>
<defs>
<clipPath id="clip0_3458_2403">
<rect width="20" height="20" fill="white" transform="translate(0 174)"/>
</clipPath>
<clipPath id="clip1_3458_2403">
<rect width="20" height="20" fill="white" transform="translate(100 174)"/>
</clipPath>
<clipPath id="clip2_3458_2403">
<rect width="20" height="20" fill="white" transform="translate(150 174)"/>
</clipPath>
</defs>
</svg>
