<svg width="243" height="24" viewBox="0 0 243 24" fill="none" xmlns="http://www.w3.org/2000/svg">
<path d="M17.9259 17.4539C17.5137 17.4949 17.2127 17.8622 17.2537 18.2744C17.2946 18.6866 17.6619 18.9875 18.0741 18.9466L17.9259 17.4539ZM6 18.9722C6.41421 18.9722 6.75 18.6364 6.75 18.2222C6.75 17.808 6.41421 17.4722 6 17.4722V18.9722ZM16.9093 9.37305L17.5796 9.03656L16.9093 9.37305ZM16.9198 9.37847L17.0261 10.1209L16.9198 9.37847ZM5.35907 11.5465L6.10594 11.6149L5.35907 11.5465ZM5.34902 11.5556L5.34967 10.8056L5.34902 11.5556ZM5.33333 17.4722C3.9066 17.4722 2.75 16.3156 2.75 14.8889H1.25C1.25 17.1441 3.07817 18.9722 5.33333 18.9722V17.4722ZM6.10594 11.6149C6.35585 8.88704 8.65101 6.75 11.4444 6.75V5.25C7.86848 5.25 4.93219 7.98514 4.6122 11.478L6.10594 11.6149ZM11.4444 6.75C13.5406 6.75 15.3572 7.95291 16.239 9.70953L17.5796 9.03656C16.4531 6.79263 14.1296 5.25 11.4444 5.25V6.75ZM2.75 14.8889C2.75 13.4797 3.9362 12.3044 5.34837 12.3056L5.34967 10.8056C3.11793 10.8037 1.25 12.6414 1.25 14.8889H2.75ZM17.0261 10.1209C19.2032 9.80912 21.25 11.565 21.25 13.7778H22.75C22.75 10.6448 19.8872 8.19586 16.8134 8.63605L17.0261 10.1209ZM21.25 13.7778C21.25 15.693 19.792 17.2687 17.9259 17.4539L18.0741 18.9466C20.6998 18.6859 22.75 16.4717 22.75 13.7778H21.25ZM6 17.4722H5.33333V18.9722H6V17.4722ZM16.239 9.70953C16.3871 10.0044 16.7057 10.1668 17.0261 10.1209L16.8134 8.63605C17.1252 8.5914 17.4354 8.74938 17.5796 9.03656L16.239 9.70953ZM4.6122 11.478C4.6472 11.096 4.96779 10.8053 5.34967 10.8056L5.34837 12.3056C5.74063 12.306 6.07 12.0073 6.10594 11.6149L4.6122 11.478Z" fill="#2B3F6C"/>
<path d="M9.5 18.5L11.6464 20.6464C11.8417 20.8417 12.1583 20.8417 12.3535 20.6464L14.5 18.5" stroke="#2B3F6C" stroke-width="1.5" stroke-linecap="round"/>
<path d="M12 20L12 14" stroke="#2B3F6C" stroke-width="1.5" stroke-linecap="round"/>
<path d="M107.907 3.36067C107.008 2.79874 105.828 2.89183 105.068 3.65118L103.782 4.93795C101.827 6.89227 103.664 11.8972 107.883 16.1167C112.103 20.3363 117.108 22.1726 119.062 20.2183L120.349 18.9315C121.237 18.0432 121.214 16.5795 120.296 15.6622L118.303 13.6691C117.386 12.7518 115.922 12.7283 115.034 13.6166L114.758 13.893C114.278 14.3726 113.504 14.4196 112.964 13.9739C112.443 13.544 111.924 13.0806 111.422 12.5781C110.919 12.0756 110.456 11.5568 110.026 11.0359C109.58 10.4958 109.627 9.72209 110.107 9.24247L110.383 8.96609C111.084 8.26578 111.217 7.20785 110.793 6.34197" stroke="#2B3F6C" stroke-width="1.5" stroke-linecap="round"/>
<path d="M56.5 20.353C56.7195 20.4978 56.945 20.6341 57.176 20.7616C58.6064 21.5509 60.2508 22 62 22C67.5228 22 72 17.5228 72 12C72 6.47715 67.5228 2 62 2C56.4772 2 52 6.47715 52 12C52 13.7553 52.4522 15.4049 53.2466 16.8388C53.3717 17.0647 53.5053 17.2852 53.647 17.5" stroke="#2B3F6C" stroke-width="1.5" stroke-linecap="round"/>
<path d="M60.3 9.5L60.3 14.5" stroke="#2B3F6C" stroke-width="1.5" stroke-linecap="round"/>
<path d="M63.8 9.5L63.8 14.5" stroke="#2B3F6C" stroke-width="1.5" stroke-linecap="round"/>
</svg>
