<svg width="480" height="48" viewBox="0 0 480 48" fill="none" xmlns="http://www.w3.org/2000/svg">
<g clip-path="url(#clip0_102_14149)">
<path fill-rule="evenodd" clip-rule="evenodd" d="M20 40H16V8H20V12H24L24 18H28V22H32V26H28V30H24L24 36H20V40Z" fill="black"/>
<path fill-rule="evenodd" clip-rule="evenodd" d="M80 8H70V40H80V8ZM98 8H88V40H98V8Z" fill="black"/>
<path fill-rule="evenodd" clip-rule="evenodd" d="M152 4H148V8H152V12H128V16H124V26H128V16H152V20L148 20V24H152V20H156V16H160V12H156V8H152V4ZM132 40H136V44H140V40H136V36H160V32H164V22H160V32H136V28L140 28V24H136V28H132V32H128V36H132V40Z" fill="black"/>
<path fill-rule="evenodd" clip-rule="evenodd" d="M252 8H256V40H252V8ZM276 8H272V12H268V18H264L264 22H260V26H264L264 32H268V36H272V40H276V8Z" fill="black"/>
<path fill-rule="evenodd" clip-rule="evenodd" d="M336 40H332V8H336V40ZM312 40H316V36H320V30H324L324 26H328V22H324L324 16H320V12H316V8H312V40Z" fill="black"/>
<path fill-rule="evenodd" clip-rule="evenodd" d="M368 12H400V16H368V12ZM368 22.0001H400V26.0001H368V22.0001ZM400 32.0001H368V36.0001H400V32.0001Z" fill="black"/>
<path fill-rule="evenodd" clip-rule="evenodd" d="M210 4H198V8H194V16H192H188V20V40V44H192H216H220V40V20V16H216H214V8H210V4ZM210 8V16H198V8H210ZM198 20H210H214H216V40H192V20H194H198ZM206 26H202V34H206V26Z" fill="black"/>
<path fill-rule="evenodd" clip-rule="evenodd" d="M430 2H426V26V30H446V34H442V38H446V34H450V30H454V26H450V22H446V18H442V22H446V26H430V6H454V2H430ZM438 10H434V22H438V14H458V42H438V34H434V46H438H462V42V10H458H438Z" fill="black"/>
</g>
<defs>
<clipPath id="clip0_102_14149">
<rect width="480" height="48" fill="white"/>
</clipPath>
</defs>
</svg>
